<svg width="119" height="85" viewBox="0 0 119 85" fill="none" xmlns="http://www.w3.org/2000/svg">
<path d="M19.3375 12.8125H10.4125C7.93953 12.8125 5.95 14.7979 5.95 17.2656V36.5625H1.4875C0.669375 36.5625 0 37.2305 0 38.0469V46.9531C0 47.7695 0.669375 48.4375 1.4875 48.4375H5.95V67.7344C5.95 70.2021 7.93953 72.1875 10.4125 72.1875H19.3375C21.8105 72.1875 23.8 70.2021 23.8 67.7344V17.2656C23.8 14.7979 21.8105 12.8125 19.3375 12.8125ZM117.512 36.5625H113.05V17.2656C113.05 14.7979 111.06 12.8125 108.587 12.8125H99.6625C97.1895 12.8125 95.2 14.7979 95.2 17.2656V67.7344C95.2 70.2021 97.1895 72.1875 99.6625 72.1875H108.587C111.06 72.1875 113.05 70.2021 113.05 67.7344V48.4375H117.512C118.331 48.4375 119 47.7695 119 46.9531V38.0469C119 37.2305 118.331 36.5625 117.512 36.5625ZM84.7875 0.9375H75.8625C73.3895 0.9375 71.4 2.92285 71.4 5.39062V36.5625H47.6V5.39062C47.6 2.92285 45.6105 0.9375 43.1375 0.9375H34.2125C31.7395 0.9375 29.75 2.92285 29.75 5.39062V79.6094C29.75 82.0771 31.7395 84.0625 34.2125 84.0625H43.1375C45.6105 84.0625 47.6 82.0771 47.6 79.6094V48.4375H71.4V79.6094C71.4 82.0771 73.3895 84.0625 75.8625 84.0625H84.7875C87.2605 84.0625 89.25 82.0771 89.25 79.6094V5.39062C89.25 2.92285 87.2605 0.9375 84.7875 0.9375Z" fill="#594F4F"/>
</svg>
