<svg width="42" height="42" viewBox="0 0 42 42" fill="none" xmlns="http://www.w3.org/2000/svg">
<path d="M38.0625 5.25H3.9375C1.76285 5.25 0 7.01285 0 9.1875V32.8125C0 34.9871 1.76285 36.75 3.9375 36.75H38.0625C40.2371 36.75 42 34.9871 42 32.8125V9.1875C42 7.01285 40.2371 5.25 38.0625 5.25ZM38.0625 9.1875V12.5348C36.2232 14.0326 33.2909 16.3616 27.0222 21.2703C25.6407 22.357 22.9041 24.9676 21 24.9372C19.0962 24.9679 16.3588 22.3566 14.9778 21.2703C8.71008 16.3624 5.77705 14.0328 3.9375 12.5348V9.1875H38.0625ZM3.9375 32.8125V17.5873C5.81716 19.0845 8.48277 21.1854 12.5457 24.3669C14.3387 25.7782 17.4786 28.8939 21 28.8749C24.5041 28.8939 27.6043 25.8234 29.4536 24.3675C33.5164 21.1861 36.1828 19.0847 38.0625 17.5874V32.8125H3.9375Z" fill="#FFF2F2"/>
</svg>
