<svg width="104" height="83" viewBox="0 0 104 83" fill="none" xmlns="http://www.w3.org/2000/svg">
<path d="M33.28 37.35C31.5575 35.0643 28.2912 34.5941 26 36.3125C23.7087 38.0309 23.2375 41.2893 24.96 43.575L31.1512 51.8102C31.9312 52.8477 31.8175 54.2904 30.9075 55.1982L28.8275 57.2732C27.7387 58.3594 25.9675 58.2783 24.9925 57.0949L10.4 39.6195V15.5625C10.4 12.6932 8.07625 10.375 5.2 10.375C2.32375 10.375 0 12.6932 0 15.5625V50.9672C0 52.7342 0.60125 54.4525 1.70625 55.8305L18.6225 77.6018C19.435 78.6555 19.9875 79.8551 20.3125 81.1195C20.605 82.2381 21.6287 83 22.7987 83H44.2C45.63 83 46.8 81.8328 46.8 80.4062V62.25C46.8 57.7596 45.3375 53.3988 42.64 49.8L33.28 37.35ZM98.8 10.375C95.9237 10.375 93.6 12.6932 93.6 15.5625V39.6195L79.0075 57.0949C78.0325 58.2621 76.245 58.3432 75.1725 57.2732L73.0925 55.1982C72.1825 54.2904 72.0687 52.8477 72.8487 51.8102L79.04 43.575C80.7625 41.2893 80.2912 38.0309 78 36.3125C75.7087 34.5941 72.4425 35.0643 70.72 37.35L61.36 49.8C58.6625 53.3988 57.2 57.7596 57.2 62.25V80.4062C57.2 81.8328 58.37 83 59.8 83H81.2012C82.355 83 83.395 82.2381 83.6875 81.1195C84.0125 79.8551 84.565 78.6555 85.3775 77.6018L102.294 55.8305C103.399 54.4525 104 52.7342 104 50.9672V15.5625C104 12.6932 101.676 10.375 98.8 10.375Z" fill="#FFCBA6"/>
<g clip-path="url(#clip0)">
<path d="M70.0797 5.9026C64.7738 1.44127 56.5764 2.11139 51.5 7.27955C46.4236 2.11139 38.2262 1.43209 32.9203 5.9026C26.0172 11.7133 27.027 21.1868 31.9473 26.2081L48.0484 42.6122C48.9664 43.5485 50.1965 44.0717 51.5 44.0717C52.8127 44.0717 54.0336 43.5577 54.9516 42.6213L71.0527 26.2172C75.9639 21.196 76.992 11.7225 70.0797 5.9026ZM67.9133 23.1145L51.8121 39.5186C51.5918 39.7389 51.4082 39.7389 51.1879 39.5186L35.0867 23.1145C31.7361 19.6997 31.0568 13.2372 35.7568 9.28072C39.3277 6.27896 44.8356 6.72877 48.2871 10.2446L51.5 13.5217L54.7129 10.2446C58.1828 6.71041 63.6906 6.27896 67.2432 9.27154C71.934 13.228 71.2363 19.7272 67.9133 23.1145Z" fill="#F868E9"/>
</g>
<rect x="0.5" y="0.5" width="103" height="82" stroke="black"/>
<defs>
<clipPath id="clip0">
<rect width="47" height="47" fill="white" transform="translate(28)"/>
</clipPath>
</defs>
</svg>
