<svg width="93" height="88" viewBox="0 0 93 88" fill="none" xmlns="http://www.w3.org/2000/svg">
<path d="M76.153 31.3644C78.705 25.3824 77.3832 18.3128 72.1875 13.4773C65.6047 19.6062 65.3168 29.2773 71.1537 35.8031L72.2006 36.9789C78.0113 43.534 86.6358 43.2107 92.0801 35.8178C87.7744 29.9828 81.4794 28.4983 76.153 31.3644Z" fill="#135209"/>
<path d="M65.0196 35.3706C58.1226 31.5933 50.0347 33.8273 45.3626 40.1914L52.5867 48.3045C53.4112 49.2305 53.4112 50.7149 52.5867 51.6262C52.181 52.0818 51.6445 52.317 51.1079 52.317C50.5713 52.317 50.0347 52.0818 49.629 51.6262L43.0593 44.248L26.2945 82.8587C25.915 83.7405 25.8888 84.8135 26.2945 85.7541C27.0013 87.3856 28.768 88.0617 30.2207 87.268L47.7052 77.6851L41.2663 70.4539C40.4418 69.5426 40.4418 68.0435 41.2663 67.1322C42.0908 66.221 43.4126 66.221 44.224 67.1322L51.6837 75.5099L65.0327 68.1904C68.1736 66.4708 70.8565 63.5901 72.5055 59.7981C76.4447 50.7296 73.0944 39.7946 65.0196 35.3706Z" fill="#D94709"/>
<path d="M7.19818 17.1987L1.35263 18.7179C3.96702 31.4068 15.2479 39.3147 26.5463 36.3786L29.5897 51.1499C29.7757 52.0526 30.5855 52.6202 31.3892 52.4114L34.312 51.6518C35.1158 51.4429 35.6212 50.5334 35.4352 49.6308L32.3918 34.8594C29.7774 22.1705 18.4965 14.2626 7.19818 17.1987ZM40.9188 1.51901C33.2283 3.5176 27.5252 10.025 25.479 17.9812C28.6473 20.4216 31.2953 23.6997 33.1419 27.6183C43.1883 23.743 49.2139 11.8887 46.7644 -0.000110029L40.9188 1.51901Z" fill="#135209"/>
</svg>
