<svg width="37" height="43" viewBox="0 0 37 43" fill="none" xmlns="http://www.w3.org/2000/svg">
<g clip-path="url(#clip0)">
<path d="M18.5082 11.8418C13.2555 11.8418 9.01872 16.1502 9.01872 21.4916C9.01872 26.8331 13.2555 31.1415 18.5082 31.1415C23.7609 31.1415 27.9977 26.8331 27.9977 21.4916C27.9977 16.1502 23.7609 11.8418 18.5082 11.8418ZM18.5082 27.7653C15.1138 27.7653 12.3388 24.9518 12.3388 21.4916C12.3388 18.0315 15.1055 15.218 18.5082 15.218C21.9109 15.218 24.6776 18.0315 24.6776 21.4916C24.6776 24.9518 21.9026 27.7653 18.5082 27.7653ZM30.5993 11.4471C30.5993 12.6985 29.6082 13.6979 28.3859 13.6979C27.1553 13.6979 26.1725 12.6901 26.1725 11.4471C26.1725 10.2042 27.1636 9.19634 28.3859 9.19634C29.6082 9.19634 30.5993 10.2042 30.5993 11.4471ZM36.8843 13.7315C36.7439 10.7165 36.0667 8.04575 33.8946 5.84536C31.7308 3.64497 29.1044 2.9563 26.1395 2.80513C23.0837 2.62876 13.9245 2.62876 10.8687 2.80513C7.91202 2.9479 5.28568 3.63657 3.11358 5.83696C0.941487 8.03735 0.272513 10.7081 0.123853 13.7231C-0.049585 16.8305 -0.049585 26.1444 0.123853 29.2518C0.264254 32.2668 0.941487 34.9375 3.11358 37.1379C5.28568 39.3383 7.90376 40.027 10.8687 40.1782C13.9245 40.3545 23.0837 40.3545 26.1395 40.1782C29.1044 40.0354 31.7308 39.3467 33.8946 37.1379C36.0584 34.9375 36.7357 32.2668 36.8843 29.2518C37.0578 26.1444 37.0578 16.8389 36.8843 13.7315ZM32.9366 32.586C32.2924 34.2321 31.0453 35.5002 29.4183 36.1637C26.9819 37.1463 21.2006 36.9196 18.5082 36.9196C15.8158 36.9196 10.0263 37.1379 7.59818 36.1637C5.97943 35.5086 4.73233 34.2405 4.07988 32.586C3.11358 30.1084 3.33658 24.2295 3.33658 21.4916C3.33658 18.7538 3.12184 12.8665 4.07988 10.3973C4.72408 8.75122 5.97117 7.48306 7.59818 6.81958C10.0346 5.83696 15.8158 6.06372 18.5082 6.06372C21.2006 6.06372 26.9901 5.84536 29.4183 6.81958C31.037 7.47466 32.2841 8.74282 32.9366 10.3973C33.9029 12.8749 33.6799 18.7538 33.6799 21.4916C33.6799 24.2295 33.9029 30.1168 32.9366 32.586Z" fill="#FFF2F2"/>
</g>
<defs>
<clipPath id="clip0">
<rect width="37" height="43" fill="white"/>
</clipPath>
</defs>
</svg>
