<svg width="53" height="56" viewBox="0 0 53 56" fill="none" xmlns="http://www.w3.org/2000/svg">
<path d="M31.9073 49.8829C16.2782 47.2505 5.92067 32.4776 8.74035 16.9053C8.86424 16.221 9.44542 15.7149 10.1315 15.6741L16.7334 15.2823C17.0815 15.2616 17.4244 15.3634 17.7022 15.5697C17.98 15.7761 18.175 16.0739 18.2532 16.4112L19.9451 23.7143C20.0173 24.0262 19.9855 24.3543 19.8544 24.6491C19.7233 24.9438 19.5001 25.1892 19.2183 25.3483L14.9784 27.742C16.355 32.8811 19.5517 37.3651 23.8281 40.3395L27.5179 37.1625C27.7631 36.9513 28.0697 36.8245 28.3914 36.8011C28.7132 36.7778 29.0326 36.8591 29.3016 37.0329L35.5981 41.1012C35.8889 41.2891 36.103 41.5736 36.2029 41.9049C36.3028 42.2362 36.2822 42.5933 36.1448 42.9138L33.5373 48.9916C33.4047 49.3006 33.1713 49.557 32.8753 49.7189C32.5792 49.8807 32.238 49.9385 31.9073 49.8829ZM22.2629 13.5306C24.0917 14.3469 25.3222 16.0985 25.47 18.0958C25.5193 18.7626 24.9311 19.3085 24.2674 19.2111L23.5607 19.1075C23.0981 19.0396 22.7458 18.6715 22.6897 18.2091C22.6353 17.7636 22.4724 17.3394 22.2152 16.9732C21.9579 16.607 21.614 16.3099 21.2134 16.1077C20.7975 15.8981 20.5706 15.4418 20.6637 14.9836L20.8059 14.2836C20.9393 13.6262 21.6523 13.258 22.2629 13.5306ZM24.2882 2.55071C32.0906 4.57413 37.2279 11.8942 36.486 19.914C36.4307 20.5111 35.8791 20.9426 35.285 20.8554L34.5992 20.7548C34.0598 20.6757 33.6773 20.1942 33.7257 19.6519C34.3204 12.994 30.0583 6.93331 23.5987 5.23634C23.0721 5.09796 22.7488 4.57489 22.8573 4.04053L22.9953 3.3612C23.1148 2.77282 23.7077 2.40017 24.2882 2.55071ZM23.2378 7.99877C28.0824 9.45028 31.2824 13.9966 31.0045 19.0546C30.9707 19.6695 30.4107 20.1269 29.8003 20.0372L29.1119 19.9361C28.5914 19.8596 28.2099 19.4069 28.2353 18.8823C28.4165 15.1324 26.0496 11.7635 22.4608 10.6624C21.9586 10.5083 21.6621 9.996 21.7667 9.48027L21.905 8.7984C22.0276 8.19378 22.6478 7.822 23.2378 7.99877Z" fill="#FFF2F2"/>
</svg>
